<svg xmlns="http://www.w3.org/2000/svg" viewBox="0 0 1000 929.2">
<path fill="#111" d="M477.4,5.3L492.2,15.6L530.9,157.2L562.1,157.2L565.4,161.3L574.5,161.3L577.8,157.1L577.8,146.5L620.2,86.4L651.8,46.5L677.8,25.5L688.8,25.5L691.8,23.9L696.5,25.5L701.6,25.5L723.6,34.9L749.6,44L793.8,56L809.5,56L809.5,76.1L793.8,132.1L840.7,106.2L842.7,109L844.9,107.8L858.1,135L894.2,113.6L911.5,101.2L923.4,99L929.6,95.9L954.3,93.2L968.7,90.5L969.1,97.5L979.4,146.5L1000,191.4L936.6,202.5L895.1,213.2L872.7,221.7L871.9,222.5L929.6,247.3L808.2,298.7L798,304.4L779.6,590L774.5,716.9L677.8,772.4L677.8,771.7L673.3,774.5L670,771.7L670,772.4L551,847.3L539.1,832.9L662.6,757.2L674.1,500L546.5,555.6L535,818.1L546.5,535.8L680.9,469.4L686.3,364.2L672.3,354.9L581.1,307.4L546.5,302.9L522.5,306.3L416.9,372.4L416.9,375.9L422.3,377.9L416.9,440.5L416.9,460.7L535,535.8L442.4,489.7L423.9,547.8L492.2,580.7L473.7,611.1L462,625.6L464.4,626.4L519.7,635.8L515.2,643.2L517.7,644L507.9,655.1L504.1,661.3L485.2,681.5L473.7,792.6L542.4,843.2L473.7,807.8L227.8,908.1L199.2,929.2L191.1,921.5L183.1,923.5L121.8,858.4L28.4,772.4L33.3,775.9L0,744.4L5.5,743L36.3,759.2L114,792.6L199.2,863.8L345.7,737L437.9,641.2L470,590.9L267.9,480.2L202.9,580.7L97.9,676.5L28.4,721.8L101.6,661.3L160.5,611.1L211.1,555.6L241.6,510.3L260.5,469.1L320.9,498.2L322.2,444L214.4,389.3L194.6,560.9L206.6,373.7L183.1,353.9L194.6,247.3L349,186.8L211.1,253.1L306.6,318.5L202.9,257.6L190.5,348.1L318.1,429.6L322.2,323L368.2,303.1L414,278.6L414.2,276.9L411.1,278.2L372.8,262.6L408.2,232.5L360.5,232.5L353.9,91.8L378.3,77.5L411.1,51L465.4,0ZM940.3,358.4L906.6,378.6L921.8,641.2L782.7,711.9L782.7,702.9L895.1,641.2L886.4,414L790.5,459.7L793.8,419.3L932.9,353.9L932.9,247.3L945.3,247.3ZM546.5,429.6L539.1,520.6L539.1,429.6L489.8,403.7L542.4,423.9L681.5,368.7ZM489.8,403.7L422.3,377.9L423,368.7Z"/>
</svg>
