<svg xmlns="http://www.w3.org/2000/svg" viewBox="0 0 1000 550.1">
<path fill="#111" d="M910.2,464.7L903.4,469.3L894.1,474L885.4,477.2L879.6,478.6L867.2,479.9L862.1,479.9L861.4,480.6L862.1,490.6L863.1,492.6L867.4,494L873.3,493.3L885,489.9L896.8,484.7L904.5,479.8L911.9,474L918.6,467.9L922.4,462.9L924.7,458.5L923.2,455.4L921.7,454.5ZM787.3,453L786.5,453.8L785.4,457.5L783.7,459.6L793.4,470.8L800.7,477.1L809.3,482.8L819.4,487.9L828.3,491.1L836.4,492.6L839.7,492.6L841.4,492L842.7,490.7L844,486.1L843.4,477.2L830.3,474.9L822.5,472.5L813.4,468.4L806.1,463.8L797.1,460.9L794.6,459.5L788.3,453.4ZM153.1,440.7L149.6,441.3L144.7,440.3L137.3,440.9L134,441.9L130.6,444.1L128,444.9L125.2,444.9L119.1,443.5L117.8,444L110,459.8L110.6,462.2L112.2,464.1L117.1,467.4L124.2,470.2L131.9,472.6L136.6,473.4L147.7,473.8L152.1,475.3L159.7,475.2L166.6,473.5L168.8,473.8L180.7,470.5L182,469.5L182.6,468.1L181.1,463.7L175.7,453.2L164.7,436.1ZM231.4,419.4L227.2,423.4L224.1,425.2L220.7,426.2L200.5,428.1L195.8,426.2L186.7,427.3L184.6,427L182.5,427.9L181.5,428.9L181.7,430.4L184.4,434.5L190.8,447.2L193.3,450.8L193.7,452.6L198.1,459.6L199.5,460.3L202.2,460.1L207.5,457.2L212.2,453.5L222.3,443.2L228.5,435.3L232.4,428.8L236.9,419.4L236.7,418.5ZM67.8,381.5L66.1,382.4L65.2,384L65.4,393.7L66.4,395.8L67.1,399.6L67.2,405.1L67.8,407.9L71.2,416L72.9,422.2L74.5,423.3L75.2,425.9L81.8,437.6L85.8,442.6L93.6,450.4L94.5,450.4L96.7,448.4L98.8,445.4L106.8,429.8L106.8,428.2L103.2,425.3L95.9,417.5L90.4,407.3L87.7,398.6L85.8,389.4L85.9,381.5L84.9,381.1ZM941.1,402.4L940.5,408.2L940.9,410.2L940.2,411.8L939.6,417.5L938.4,420.3L937.9,424.8L933.7,436L931.7,439.5L934.7,440.2L936.1,439.9L938.1,437.3L942.1,426.7L944.7,412.5L944.8,405.2L944.2,403.7ZM626.8,411.7L621.1,419.9L621.3,420.6L623.4,422.3L628.4,424.9L630,425.1L631.1,424.3L631.6,422.7L631.1,417L629.6,411.9L628.8,411.2ZM933.1,369.1L932.9,369.5L938.5,385.9L940.1,393.1L941.3,392.7L943.1,390.6L943.4,389.1L942.5,379.6L940.9,374.1L938.4,368.8L936.5,368.2ZM773.6,359.7L771.7,360.8L767.8,368.5L766.1,373.3L765.5,377.7L765.9,379.2L767.1,380.3L770.2,379.6L775.4,379.5L776.1,378.8L776.8,376L783.7,363.6L779.3,360.9L776.1,359.8ZM105.6,304.5L101.8,307.8L99.4,308.7L99.6,309.1L98.8,310L96.8,310.7L96.2,312.1L95.1,312.5L88.6,318.7L77.9,333.3L72.3,344.5L68.8,355L67.5,360.7L67.7,362L68.5,362.8L72.2,363.8L90.1,364L91,363.6L94.1,357.7L97.9,352.5L103.7,346.2L109.6,341.5L115.9,337.6L127.1,333.5L112.3,306.6L110.8,306.9L109.5,305.4ZM875.1,310.6L874.5,311.4L875.4,312.1L879,324.6L880,325.9L892.4,330.5L902,335.2L913.7,343.3L923.9,353.9L924.8,353.8L927.6,350.8L927.9,348.9L926.6,345.9L920.3,337.7L915.2,332.4L907.6,325.7L900.1,320.6L888.9,314.5L879.8,310.8L876.3,310.3ZM785.8,337.6L783.6,340.8L783.6,343.8L786.5,346.1L793.3,349.8L794.5,349.8L800.7,344.1L800.8,343L793.4,329.9ZM144,288.5L131.7,291.2L128.9,292.3L126.9,293.8L126.5,294.9L127,297.9L147,332.8L149.6,332.5L150.1,331.6L150.8,325.6L151.9,323.7L151.9,321L153.6,318.8L154.8,313.2L156.1,311.1L157.7,306.5L160.8,301.3L166.4,296.1L169.3,291.6L169.5,289.4L166.1,288.7L160.4,288.6L157.4,294.8L155.9,295.9L154,296L152.5,295.2L149.9,288.6ZM212.5,311.3L210.7,314L211.6,315.2L221.3,321.4L224.6,321.8L215,311.4L213.9,311ZM189.1,295.1L185,298.8L184.6,299.7L185.7,301.4L194.8,305.4L196.4,305.2L198.6,300.6L197.8,299L190.4,295.2ZM427.3,257.4L426.3,257.9L428.1,259.2L446.5,262.2L449,261.9L451.1,260.5L451.9,259L451.8,258.1L450.5,257.4ZM780,158.6L779.4,160.4L778.2,161.9L773.6,165.3L773.3,166.3L776.3,168.3L779.5,168.4L783.3,170.1L785.6,170.5L789.8,169.3L793.2,167.7L788.7,156.7L782.4,144.8L779.6,142.3ZM747.3,128.5L747.1,129.4L749.4,137.5L746.3,140.4L746.1,142.3L753.3,156L754.3,156.1L761.1,152.3L761.9,151.2L762.1,149.8L759.9,145.9L758.8,141L759,139.2L764.1,130.6L763.8,129L762,127.4L754.6,123.7ZM726.4,0.7L735.2,4.1L736.3,5.2L738.8,6.2L741.4,8.2L745.4,12.4L747.3,13.5L763.8,27.7L794.6,59.1L809.7,75.9L824.2,93.3L838,111.2L850.9,129.8L862.9,149L874,168.7L882.3,185.1L891.7,209.8L888.8,211.4L881.5,211.9L863.5,210.5L861.1,210.8L861.2,212.3L867.7,224.2L868.4,227.6L867.7,230.2L865.2,232.6L864.1,234.8L865,235.4L874.9,236.2L898.8,241.6L909.8,245.3L923.4,251L935.5,257.3L947.1,264.9L953.5,270.3L954.5,271.9L954.7,274.2L954.3,275.1L951.3,276.8L938.2,280.3L947.6,288L962.9,303.5L972.2,315.8L979.3,326.9L985.1,337.7L992.5,355.9L995.5,366.7L998.5,381.6L1000,400.6L999.8,410.2L997.8,429.3L995.9,438.8L990.4,457.4L983.3,472.5L977.6,481.8L965.7,498.6L954.9,509.9L945.7,517.9L933.5,526.7L925,531.8L911.1,538.6L900.5,542.5L878.8,547.9L867.4,549.6L855.9,550.1L844.4,549.3L818.7,543.7L804.9,539L791.5,533.2L778.7,526.3L766.6,518.3L755.4,509.1L744.2,497.5L739,490.7L730.1,476.2L718,451.2L713.3,434.1L710.8,423L709.3,411.6L708.9,404.5L709.5,388L711,377.7L710.5,369.3L709.6,368.9L707.3,369.3L706.3,370.1L695.2,390.6L688.1,409.4L683.5,423.3L669.9,473.2L668.5,476.8L666.4,479.4L662.5,482.1L649.6,487.4L639.1,490.5L623.2,493.8L615.2,494.8L599,495.8L582.9,495.5L472.2,489.4L458.9,488L395.6,487.2L345.6,485.5L316.3,483.3L304.3,480.6L302.3,479.6L288.5,462.9L286.5,461.8L275.7,478.1L261.3,493.5L252.8,501.7L243.6,509.3L231,517.5L217,524.9L202.3,530.7L194.6,532.9L170,537.6L155.9,538.7L141.8,538.4L127.7,536.8L113.9,533.8L100.5,529.4L87.5,523.7L69.9,513.2L59.3,505.4L49.5,496.9L40.5,487.6L32.2,477.6L24.7,467L18.1,455.6L10.1,438.2L6,426.4L2.6,412.6L0.6,398.5L0,384.3L1.7,362.4L4.3,347.9L8.2,333.6L16.2,314.1L22.6,302.3L34.1,284.7L38.5,279.1L51.3,266.3L62.2,256.5L73.3,248.1L83.8,241.2L105.1,230.7L112.3,228.1L124.1,224.8L136.2,222.6L148.4,221.4L156.9,221.2L173.5,221.8L174.2,221.1L172,216.8L173.3,215.3L182.9,214.2L196,217.1L206.2,220L223.7,226.4L230.3,229.4L232.1,229L232.1,228.4L224.6,218.2L219.3,209.2L209,187.4L204.2,181.4L202.4,178.1L201.5,171.4L177.9,159L174.6,157.8L149.4,143.9L118.9,126.3L91.1,111L88.8,111.8L76.7,111.6L54.8,108.4L50.5,106.3L49,104.6L47.7,101.8L44.5,83.2L41.9,75.4L42.3,73.6L43.5,72.2L47.2,70.1L59.3,67.4L60.6,67.7L62.7,65.6L70.4,64.1L76.4,64.2L92.4,60L97.1,59.8L102.1,60.6L111.9,63.6L119.6,64.9L156.3,63.2L191.5,62.9L193.1,61.9L206,61.8L210.2,62.7L215.4,62.6L226.8,64.8L234.3,65.5L242.1,72.5L244.8,74L249,77.7L261.5,78.7L266,81.6L274.7,93.6L279.2,106.1L280.9,115.2L280.9,121.5L278.9,127.6L307,135.8L356.3,147.8L383.4,153.7L404.1,157.4L406.6,158.6L409.8,161.2L411.2,161.3L413,158.5L419.3,141.7L423.2,133.6L427.8,125.8L433,118.6L439,112.1L445.6,106.5L456.2,100.1L461.9,97.6L473.2,93.9L484.8,91.7L490.7,91.5L523.9,93.4L548.2,95.5L575.8,99L602.4,103.5L641,111.8L651.7,115.9L661.1,122L665.2,125.9L668.8,130.4L673.1,137.7L674,142.7L675.3,143.9L684,143.4L684.2,142.9L681.7,138.5L682.4,135.6L682.2,127.2L684.3,124.1L684.2,119.9L684.9,117.7L691,113.8L696.9,111.7L697.2,111.1L687.4,107.7L680.8,104L677.9,101.5L665.7,88.1L664.5,85.7L663.9,80.7L664.2,78.4L665.6,75.5L666.1,72.7L669.9,64.5L671.4,62.4L672.4,56.9L676.1,51.9L675.8,50.7L669.9,42.5L668.7,39L669,31L671.7,25.1L672.8,20.7L674.8,18.7L685.3,11.5L692.2,7.6L696.5,7.5L701.9,8.8L701.3,7.2L702,4.6L703.2,3.3L708.2,1L717.6,0Z"/>
</svg>
