<svg xmlns="http://www.w3.org/2000/svg" viewBox="0 0 1000 877.9">
<path fill="#111" d="M312.2,6.8L365.8,26L413.7,56.6L525.5,261.5L347.8,460.6L511.3,642L500,877.9L474.8,822.9L450.3,775.7L426.1,735.2L401.9,700.4L377.4,670.5L352.3,644.3L326.3,620.9L299.1,599.2L270.5,578.4L172.5,510.7L134.8,483L94.1,451.2L54.2,410.7L24.3,362.3L5.9,308.5L0,252L6.8,195.5L26,142L56.6,94.1L97.1,54.2L145.4,24.3L199.2,5.9L255.8,0ZM800.8,5.9L854.6,24.3L902.9,54.2L943.4,94.1L974,142L993.2,195.5L1000,252L994.1,308.5L975.7,362.3L945.8,410.7L905.9,451.2L865.2,483L827.5,510.7L729.5,578.4L700.9,599.2L673.7,620.9L647.7,644.3L622.6,670.5L598.1,700.4L573.9,735.2L549.7,775.7L525.2,822.9L500,877.9L560.1,649.5L437.9,438.1L653.1,280.2L586.3,56.6L634.2,26L687.8,6.8L744.2,0Z"/>
</svg>
